<?xml version="1.0" encoding="iso-8859-1"?>
<!-- Generator: Adobe Illustrator 19.0.0, SVG Export Plug-In . SVG Version: 6.00 Build 0)  -->
<svg version="1.1" id="Layer_1" xmlns="http://www.w3.org/2000/svg" xmlns:xlink="http://www.w3.org/1999/xlink" x="0px" y="0px"
	 viewBox="0 0 511.999 511.999" style="enable-background:new 0 0 511.999 511.999;" xml:space="preserve">
<g>
	<g>
		<path d="M164.392,197.756c-11.306,0-20.505,9.199-20.505,20.505s9.199,20.505,20.505,20.505s20.505-9.199,20.505-20.505
			S175.698,197.756,164.392,197.756z M164.392,222.993c-2.609,0-4.732-2.123-4.732-4.732c0-2.609,2.123-4.732,4.732-4.732
			c2.609,0,4.732,2.123,4.732,4.732C169.124,220.87,167.001,222.993,164.392,222.993z" fill="#0C5F79"/>
	</g>
</g>
<g>
	<g>
		<path fill="#0C5F79" d="M506.957,0.601c-4.061-1.574-8.63,0.445-10.201,4.508c-2.239,5.783-19.83,52.923-38.511,105.685
			c-3.876-0.883-7.902-1.366-12.042-1.366c-29.86,0-54.154,24.293-54.154,54.154c0,21.937,13.119,40.856,31.917,49.358
			c-0.775,2.576-1.504,5.043-2.166,7.344c-20.639,71.644-44.622,81.897-51.48,83.333c-5.91,1.245-11.142-0.817-15.538-6.109
			c-8.598-10.349-12.964-33.357-2.232-59.42c17.084-41.491,43.57-116.094,28.999-149.552c-3.523-8.088-9.14-13.628-16.698-16.462
			c-22.237-8.34-47.24,9.036-74.308,51.643c-13.492,21.236-24.044,43.234-29.142,54.475c-32.579-14.098-77.179-14.564-121.396-0.924
			c-52.297,16.129-95.012,49.666-117.193,92.012C-3.533,319.572-7.293,375.641,12.752,419.264
			c16.795,36.551,49.106,62.002,90.981,71.665c10.34,2.387,20.765,3.366,30.928,3.366c36.338-0.002,69.241-12.541,82.19-18.175
			c18.698,21.211,46.42,33.45,80.614,35.502c3.613,0.217,7.123,0.311,10.504,0.311c22.057,0,38.413-4.016,39.2-4.212
			c6.025-1.507,7.979-9.411,3.326-13.546c-32.177-28.602-69.714-53.794-81.475-61.487v-54.596c0-5.375-5.521-9.253-10.582-7.412
			c-39.188,14.251-50.955,47.275-54.34,62.24l-56.46-3.136l93.743-178.414c2.026-3.856,0.543-8.624-3.313-10.65
			c-3.856-2.027-8.624-0.543-10.649,3.313l-27.384,52.116c-0.244,0.039-0.487,0.086-0.731,0.149
			c-6.19,1.594-12.605,2.402-19.064,2.402c-42.037,0-76.236-34.199-76.236-76.236c0-2.259,0.085-4.525,0.298-6.774
			c0.202-2.145,0.78-4.287,0.613-6.454c12.316-6.845,25.639-12.549,39.737-16.897c39.815-12.282,81.012-12.124,109.891,0.067
			l-13.987,26.622c-2.026,3.856-0.543,8.624,3.313,10.65c3.855,2.026,8.622,0.542,10.649-3.313c0,0,31.223-65.683,49.336-94.192
			c21.88-34.438,41.574-50.532,55.456-45.331c3.504,1.313,5.975,3.853,7.777,7.991c8.815,20.243-2.073,71.551-29.124,137.249
			c-11.505,27.941-9.621,58.285,4.686,75.505c7.576,9.118,19.128,13.936,30.904,11.467c24.848-5.202,47.365-38.729,63.404-94.404
			c0.665-2.308,1.4-4.792,2.182-7.391c2.314,0.304,4.669,0.476,7.064,0.476c29.86,0,54.154-24.293,54.154-54.154
			c0-20.136-11.055-37.728-27.407-47.058c18.685-52.791,36.284-99.957,38.515-105.722C513.037,6.74,511.019,2.173,506.957,0.601z
			 M180.239,314.476c3.512,0,7.013-0.209,10.485-0.604l-62.756,119.439c-1.249,2.375-1.203,5.223,0.121,7.558
			c1.324,2.334,3.743,3.835,6.423,3.984l75.71,4.206c4.204,0.227,7.877-2.927,8.289-7.134c0.15-1.532,3.738-34.411,34.736-51.616
			v46.67c0,2.695,1.378,5.205,3.652,6.653c0.406,0.259,36.461,23.294,70.377,51.411c-25.237,2.805-74.135,2.735-101.953-33.43
			c-2.303-2.993-6.403-3.933-9.778-2.245c-0.564,0.282-56.941,28.04-108.264,16.194c-37.543-8.664-65.275-30.408-80.197-62.882
			c-18.019-39.214-14.393-90.084,9.699-136.079c11.566-22.081,29.365-41.563,51.502-56.994c-0.029,0.954-0.054,1.907-0.054,2.86
			C88.231,273.201,129.505,314.476,180.239,314.476z M446.202,201.962c-18.828,0-34.522-13.632-37.758-31.542l59.247,24.946
			C461.555,199.529,454.158,201.962,446.202,201.962z M484.303,168.134c-0.642,5.415-2.414,10.487-5.078,14.975l-70.08-29.507
			c1.407-5.217,3.886-9.996,7.189-14.086L484.303,168.134z M482.135,150.107l-51.398-21.64c4.735-2.094,9.964-3.265,15.465-3.265
			C462.626,125.2,476.667,135.572,482.135,150.107z"/>
	</g>
</g>
<g>
	<g>
		<path fill="#0C5F79" d="M88.176,313.079c-3.462-2.641-8.41-1.978-11.053,1.485c-4.397,5.761-12.662,6.87-18.423,2.475
			c-5.761-4.397-6.872-12.662-2.475-18.424c2.642-3.463,1.977-8.411-1.486-11.054c-3.462-2.644-8.411-1.979-11.054,1.485
			c-9.673,12.676-7.23,30.858,5.445,40.531c5.228,3.991,11.391,5.918,17.509,5.918c8.715,0,17.338-3.916,23.021-11.363
			C92.303,320.671,91.639,315.722,88.176,313.079z"/>
	</g>
</g>
<g>
	<g>
		<path fill="#0C5F79" d="M147.064,350.932c-3.462-2.643-8.411-1.978-11.054,1.485c-4.398,5.76-12.661,6.87-18.423,2.475
			c-5.761-4.397-6.872-12.662-2.475-18.424c2.643-3.463,1.977-8.411-1.486-11.054c-3.462-2.644-8.411-1.978-11.054,1.485
			c-9.672,12.676-7.23,30.858,5.446,40.532c5.228,3.988,11.391,5.917,17.509,5.917c8.716,0,17.338-3.915,23.021-11.363
			C151.191,358.524,150.526,353.575,147.064,350.932z"/>
	</g>
</g>
<g>
	<g>
		<path fill="#0C5F79" d="M96.694,376.31c-3.462-2.643-8.411-1.977-11.054,1.486c-2.129,2.791-5.219,4.585-8.698,5.054
			c-3.481,0.461-6.934-0.449-9.725-2.578c-5.761-4.397-6.872-12.661-2.474-18.424c2.642-3.463,1.977-8.411-1.486-11.054
			c-3.462-2.644-8.412-1.979-11.054,1.485c-9.673,12.676-7.23,30.857,5.445,40.53c5.228,3.991,11.391,5.918,17.51,5.918
			c8.715,0,17.338-3.916,23.021-11.363C100.823,383.901,100.157,378.952,96.694,376.31z"/>
	</g>
</g>
<g>
	<g>
		<path fill="#0C5F79" d="M273.059,5.859c-21.685-7.375-45.323,4.273-52.693,25.96c-6.445,18.962,7.268,69.335,10.083,79.239
			c0.708,2.491,2.595,4.477,5.048,5.31c2.429,0.829,5.179,0.394,7.239-1.135c8.268-6.139,49.837-37.72,56.281-56.683
			C306.388,36.867,294.744,13.228,273.059,5.859z M284.084,53.475l-0.001,0.001c-3.166,9.318-24.328,28.337-41.466,41.95
			c-5.473-22.017-10.345-49.624-7.318-58.531c3.242-9.539,12.035-16.442,22.063-17.366c3.579-0.33,7.216,0.107,10.619,1.264
			C281.432,25.364,288.655,40.026,284.084,53.475z"/>
	</g>
</g>
<g>
	<g>
		<path fill="#0C5F79" d="M415.964,363.359c-19.051-6.175-69.224,8.247-79.089,11.201c-5.191,1.555-7.3,8.033-4.003,12.345
			c6.255,8.18,38.42,49.299,57.471,55.477c0,0,0,0,0.001,0c4.241,1.375,8.544,2.028,12.779,2.028
			c17.52,0,33.852-11.186,39.542-28.73C449.728,393.895,437.749,370.424,415.964,363.359z M427.661,410.816
			c-4.382,13.514-18.937,20.942-32.452,16.562h0.001c-9.362-3.036-28.677-23.926-42.531-40.871
			c21.937-5.783,49.471-11.049,58.422-8.142C424.612,382.745,432.042,397.304,427.661,410.816z"/>
	</g>
</g>
<g>
	<g>
		<path fill="#0C5F79" d="M112.476,149.732c-1.608-10.171-10.327-61.644-24.143-76.143C72.535,57.009,46.191,56.375,29.61,72.171
			c-16.581,15.798-17.217,42.141-1.417,58.723c13.815,14.5,64.806,25.694,74.887,27.791
			C108.391,159.787,113.321,155.089,112.476,149.732z M39.611,120.013c-9.799-10.285-9.405-26.624,0.879-36.423
			c4.979-4.745,11.377-7.099,17.767-7.099c6.807,0,13.603,2.673,18.657,7.978c6.79,7.125,13.834,34.693,17.954,56.189
			C73.597,135.508,46.401,127.139,39.611,120.013z"/>
	</g>
</g>
<g>
</g>
<g>
</g>
<g>
</g>
<g>
</g>
<g>
</g>
<g>
</g>
<g>
</g>
<g>
</g>
<g>
</g>
<g>
</g>
<g>
</g>
<g>
</g>
<g>
</g>
<g>
</g>
<g>
</g>
</svg>
